<mxfile host="drawio-plugin" modified="2023-01-13T07:51:55.598Z" agent="5.0 (X11; Linux x86_64) AppleWebKit/537.36 (KHTML, like Gecko) Chrome/104.0.5112.102 Safari/537.36" etag="sOBhbJjvkn_HIQZzDDn-" version="20.5.3" type="embed" pages="4"><diagram id="5mkIIncmdsHLVN8pDCGn" name="System Architecture"><mxGraphModel dx="2736" dy="1741" grid="1" gridSize="10" guides="1" tooltips="1" connect="1" arrows="1" fold="1" page="1" pageScale="1" pageWidth="850" pageHeight="1100" math="0" shadow="0"><root><mxCell id="0"/><mxCell id="1" parent="0"/><mxCell id="47" value="" style="rounded=0;whiteSpace=wrap;html=1;fontStyle=1;fillColor=none;strokeWidth=2;dashed=1;" parent="1" vertex="1"><mxGeometry x="-1049" y="40" width="419" height="450" as="geometry"/></mxCell><mxCell id="7" value="" style="rounded=0;whiteSpace=wrap;html=1;fontStyle=1;fillColor=none;strokeWidth=2;dashed=1;" parent="1" vertex="1"><mxGeometry x="-1210" y="-30" width="1030" height="790" as="geometry"/></mxCell><mxCell id="2" style="edgeStyle=none;html=1;entryX=0;entryY=0.5;entryDx=0;entryDy=0;startArrow=none;startFill=0;endArrow=classic;endFill=1;strokeWidth=3;fillColor=#fff2cc;strokeColor=#d6b656;" parent="1" source="3" edge="1"><mxGeometry relative="1" as="geometry"><mxPoint x="-1448" y="291" as="targetPoint"/></mxGeometry></mxCell><mxCell id="3" value="" style="outlineConnect=0;dashed=0;verticalLabelPosition=bottom;verticalAlign=top;align=center;html=1;shape=mxgraph.aws3.internet_3;fillColor=#D2D3D3;gradientColor=none;strokeColor=#B266FF;strokeWidth=2;" parent="1" vertex="1"><mxGeometry x="-1650" y="270" width="79.5" height="54" as="geometry"/></mxCell><mxCell id="4" value="" style="outlineConnect=0;dashed=0;verticalLabelPosition=bottom;verticalAlign=top;align=center;html=1;fontSize=12;fontStyle=0;aspect=fixed;pointerEvents=1;shape=mxgraph.aws4.network_load_balancer;fillColor=#6a00ff;strokeColor=#3700CC;fontColor=#ffffff;" parent="1" vertex="1"><mxGeometry x="-1440" y="250" width="74" height="74" as="geometry"/></mxCell><mxCell id="5" value="Traffic" style="text;html=1;resizable=0;autosize=1;align=center;verticalAlign=middle;points=[];fillColor=none;strokeColor=none;rounded=0;" parent="1" vertex="1"><mxGeometry x="-1645" y="230" width="50" height="20" as="geometry"/></mxCell><mxCell id="6" value="LoadBalancer" style="text;html=1;resizable=0;autosize=1;align=center;verticalAlign=middle;points=[];fillColor=none;strokeColor=none;rounded=0;" parent="1" vertex="1"><mxGeometry x="-1440" y="220" width="90" height="20" as="geometry"/></mxCell><mxCell id="8" style="edgeStyle=none;html=1;startArrow=none;startFill=0;endArrow=classic;endFill=1;strokeWidth=3;fillColor=#fff2cc;strokeColor=#d6b656;" parent="1" edge="1"><mxGeometry relative="1" as="geometry"><mxPoint x="-1220" y="265" as="targetPoint"/><mxPoint x="-1350" y="264.53004622496155" as="sourcePoint"/></mxGeometry></mxCell><mxCell id="9" style="edgeStyle=none;html=1;startArrow=none;startFill=0;endArrow=classic;endFill=1;strokeWidth=3;fillColor=#fff2cc;strokeColor=#d6b656;" parent="1" edge="1"><mxGeometry relative="1" as="geometry"><mxPoint x="-1350" y="296.5" as="targetPoint"/><mxPoint x="-1230" y="296.5" as="sourcePoint"/></mxGeometry></mxCell><mxCell id="10" value="" style="rounded=0;whiteSpace=wrap;html=1;fontStyle=1;fillColor=none;strokeWidth=2;dashed=1;strokeColor=#33FF33;" parent="1" vertex="1"><mxGeometry x="-1060" y="30" width="817" height="480" as="geometry"/></mxCell><mxCell id="11" value="Private&lt;br&gt;Network" style="text;html=1;align=center;verticalAlign=middle;resizable=0;points=[];autosize=1;strokeColor=none;" parent="1" vertex="1"><mxGeometry x="-1160" y="60" width="54" height="32" as="geometry"/></mxCell><mxCell id="12" value="IAM -AUTH SERVICE" style="editableCssRules=.*;shape=image;verticalLabelPosition=bottom;labelBackgroundColor=none;verticalAlign=top;aspect=fixed;imageAspect=0;image=data:image/svg+xml,PHN2ZyB4bWxucz0iaHR0cDovL3d3dy53My5vcmcvMjAwMC9zdmciIHhtbG5zOnY9Imh0dHBzOi8vdmVjdGEuaW8vbmFubyIgd2lkdGg9IjE2LjQyMDAwMDA3NjI5Mzk0NSIgaGVpZ2h0PSIyMC4wNDk5OTkyMzcwNjA1NDciIGZpbGwtcnVsZT0iZXZlbm9kZCIgdmlld0JveD0iMCAwIDE2LjQyMDAwMDA3NjI5Mzk0NSAyMC4wNDk5OTkyMzcwNjA1NDciPiYjeGE7CTxzdHlsZSB0eXBlPSJ0ZXh0L2NzcyI+JiN4YTsJLnN0MHtmaWxsOiM0Mjg1ZjQ7fSYjeGE7CS5zdDF7ZmlsbDojNjY5ZGY2O30mI3hhOwk8L3N0eWxlPiYjeGE7CTxwYXRoIGNsYXNzPSJzdDEiIGQ9Ik04LjIxIDBMMCAzLjQydjUuNjNjMCA1LjA2IDMuNSA5LjggOC4yMSAxMSA0LjcxLTEuMTUgOC4yMS01Ljg5IDguMjEtMTAuOTVWMy40MnptMCAzLjc5YTIuNjMgMi42MyAwIDAgMSAxLjAwNSA1LjA2QTIuNjMgMi42MyAwIDAgMSA2LjM1IDQuNTZhMi42MyAyLjYzIDAgMCAxIDEuODYtLjc3em00LjExIDExLjE1YTguNjQgOC42NCAwIDAgMS00LjExIDIuOTMgOC42NCA4LjY0IDAgMCAxLTQuMTEtMi45M3YtMi4yNWMwLTEuNjcgMi43NC0yLjUyIDQuMTEtMi41MnM0LjExLjg1IDQuMTEgMi41MnoiLz4mI3hhOwk8cGF0aCBjbGFzcz0ic3QwIiBkPSJNOC4yMSAwdjMuNzlhMi42MyAyLjYzIDAgMSAxIDAgNS4yNnYxLjEyYzEuMzcgMCA0LjExLjg1IDQuMTEgMi41MnYyLjI1YTguNjQgOC42NCAwIDAgMS00LjExIDIuOTNWMjBjNC43MS0xLjE1IDguMjEtNS44OSA4LjIxLTEwLjk1VjMuNDJ6Ii8+JiN4YTs8L3N2Zz4=;" parent="1" vertex="1"><mxGeometry x="-1180" y="240" width="66" height="82.5" as="geometry"/></mxCell><mxCell id="15" style="edgeStyle=none;html=1;startArrow=none;startFill=0;endArrow=classic;endFill=1;strokeWidth=3;fillColor=#fff2cc;strokeColor=#d6b656;" parent="1" edge="1"><mxGeometry relative="1" as="geometry"><mxPoint x="-1070" y="265" as="targetPoint"/><mxPoint x="-1106" y="264.76004622496157" as="sourcePoint"/></mxGeometry></mxCell><mxCell id="16" style="edgeStyle=none;html=1;startArrow=none;startFill=0;endArrow=classic;endFill=1;strokeWidth=3;fillColor=#fff2cc;strokeColor=#d6b656;" parent="1" edge="1"><mxGeometry relative="1" as="geometry"><mxPoint x="-1106" y="296.73" as="targetPoint"/><mxPoint x="-1080" y="297" as="sourcePoint"/></mxGeometry></mxCell><mxCell id="17" value="User Management Service" style="rounded=0;whiteSpace=wrap;html=1;" parent="1" vertex="1"><mxGeometry x="-1040" y="60" width="120" height="60" as="geometry"/></mxCell><mxCell id="18" value="Client Management Service" style="rounded=0;whiteSpace=wrap;html=1;" parent="1" vertex="1"><mxGeometry x="-1040" y="140" width="120" height="60" as="geometry"/></mxCell><mxCell id="19" value="CheckOu&lt;span style=&quot;color: rgba(0 , 0 , 0 , 0) ; font-family: monospace ; font-size: 0px&quot;&gt;%3CmxGraphModel%3E%3Croot%3E%3CmxCell%20id%3D%220%22%2F%3E%3CmxCell%20id%3D%221%22%20parent%3D%220%22%2F%3E%3CmxCell%20id%3D%222%22%20value%3D%22User%20Management%20Service%22%20style%3D%22rounded%3D0%3BwhiteSpace%3Dwrap%3Bhtml%3D1%3B%22%20vertex%3D%221%22%20parent%3D%221%22%3E%3CmxGeometry%20x%3D%22-1030%22%20y%3D%2260%22%20width%3D%22120%22%20height%3D%2260%22%20as%3D%22geometry%22%2F%3E%3C%2FmxCell%3E%3C%2Froot%3E%3C%2FmxGraphModel%3E&lt;/span&gt;t Service" style="rounded=0;whiteSpace=wrap;html=1;" parent="1" vertex="1"><mxGeometry x="-1040" y="220" width="120" height="60" as="geometry"/></mxCell><mxCell id="20" value="&lt;span style=&quot;color: rgba(0 , 0 , 0 , 0) ; font-family: monospace ; font-size: 0px&quot;&gt;CmxGraphModel%3E%3Croot%3E%3CmxCell%20id%3D%220%22%2F%3E%3CmxCell%20id%3D%221%22%20parent%3D%220%22%2F%3E%3CmxCell%20id%3D%222%22%20value%3D%22User%20Management%20Service%22%20style%3D%22rounded%3D0%3BwhiteSpace%3Dwrap%3Bhtml%3D1%3B%22%20vertex%3D%221%22%20parent%3D%221%22%3E%3CmxGeometry%20x%3D%22-1030%22%20y%3D%2260%22%20width%3D%22120%22%20height%3D%2260%22%20as%3D%22geometry%22%2F%3E%3C%2FmxCell%3E%3C%2Froot%3E%3C%2FmxGraphModel%3EOrder&lt;/span&gt;&amp;nbsp;Order Service" style="rounded=0;whiteSpace=wrap;html=1;" parent="1" vertex="1"><mxGeometry x="-1040" y="300" width="120" height="60" as="geometry"/></mxCell><mxCell id="21" value="&lt;span style=&quot;color: rgba(0 , 0 , 0 , 0) ; font-family: monospace ; font-size: 0px&quot;&gt;CmxGraphModel%3E%3Croot%3E%3CmxCell%20id%3D%220%22%2F%3E%3CmxCell%20id%3D%221%22%20parent%3D%220%22%2F%3E%3CmxCell%20id%3D%222%22%20value%3D%22User%20Management%20Service%22%20style%3D%22rounded%3D0%3BwhiteSpace%3Dwrap%3Bhtml%3D1%3B%22%20vertex%3D%221%22%20parent%3D%221%22%3E%3CmxGeometry%20x%3D%22-1030%22%20y%3D%2260%22%20width%3D%22120%22%20height%3D%2260%22%20as%3D%22geometry%22%2F%3E%3C%2FmxCell%3E%3C%2Froot%3E%3C%2FmxGraphModel%3EOrder&lt;/span&gt;&amp;nbsp;Payment Service" style="rounded=0;whiteSpace=wrap;html=1;" parent="1" vertex="1"><mxGeometry x="-1040" y="380" width="120" height="60" as="geometry"/></mxCell><mxCell id="22" value="&lt;span style=&quot;color: rgba(0 , 0 , 0 , 0) ; font-family: monospace ; font-size: 0px&quot;&gt;CmxGraphModel%3E%3Croot%3E%3CmxCell%20id%3D%220%22%2F%3E%3CmxCell%20id%3D%221%22%20parent%3D%220%22%2F%3E%3CmxCell%20id%3D%222%22%20value%3D%22User%20Management%20Service%22%20style%3D%22rounded%3D0%3BwhiteSpace%3Dwrap%3Bhtml%3D1%3B%22%20vertex%3D%221%22%20parent%3D%221%22%3E%3CmxGeometry%20x%3D%22-1030%22%20y%3D%2260%22%20width%3D%22120%22%20height%3D%2260%22%20as%3D%22geometry%22%2F%3E%3C%2FmxCell%3E%3C%2Froot%3E%3C%2FmxGraphModel%3EOrder&lt;/span&gt;&amp;nbsp;Content Managenemnt System Service" style="rounded=0;whiteSpace=wrap;html=1;" parent="1" vertex="1"><mxGeometry x="-910" y="60" width="120" height="60" as="geometry"/></mxCell><mxCell id="23" value="&lt;span style=&quot;color: rgba(0 , 0 , 0 , 0) ; font-family: monospace ; font-size: 0px&quot;&gt;CmxGraphModel%3E%3Croot%3E%3CmxCell%20id%3D%220%22%2F%3E%3CmxCell%20id%3D%221%22%20parent%3D%220%22%2F%3E%3CmxCell%20id%3D%222%22%20value%3D%22User%20Management%20Service%22%20style%3D%22rounded%3D0%3BwhiteSpace%3Dwrap%3Bhtml%3D1%3B%22%20vertex%3D%221%22%20parent%3D%221%22%3E%3CmxGeometry%20x%3D%22-1030%22%20y%3D%2260%22%20width%3D%22120%22%20height%3D%2260%22%20as%3D%22geometry%22%2F%3E%3C%2FmxCell%3E%3C%2Froot%3E%3C%2FmxGraphModel%3EOrder&lt;/span&gt;&amp;nbsp;Reports Service" style="rounded=0;whiteSpace=wrap;html=1;" parent="1" vertex="1"><mxGeometry x="-910" y="140" width="120" height="60" as="geometry"/></mxCell><mxCell id="24" value="&lt;span style=&quot;color: rgba(0 , 0 , 0 , 0) ; font-family: monospace ; font-size: 0px&quot;&gt;CmxGraphModel%3E%3Croot%3E%3CmxCell%20id%3D%220%22%2F%3E%3CmxCell%20id%3D%221%22%20parent%3D%220%22%2F%3E%3CmxCell%20id%3D%222%22%20value%3D%22User%20Management%20Service%22%20style%3D%22rounded%3D0%3BwhiteSpace%3Dwrap%3Bhtml%3D1%3B%22%20vertex%3D%221%22%20parent%3D%221%22%3E%3CmxGeometry%20x%3D%22-1030%22%20y%3D%2260%22%20width%3D%22120%22%20height%3D%2260%22%20as%3D%22geometry%22%2F%3E%3C%2FmxCell%3E%3C%2Froot%3E%3C%2FmxGraphModel%3EOrder&lt;/span&gt;&amp;nbsp;Receipts Service" style="rounded=0;whiteSpace=wrap;html=1;" parent="1" vertex="1"><mxGeometry x="-910" y="220" width="120" height="60" as="geometry"/></mxCell><mxCell id="25" value="&lt;span style=&quot;color: rgba(0 , 0 , 0 , 0) ; font-family: monospace ; font-size: 0px&quot;&gt;CmxGraphModel%3E%3Croot%3E%3CmxCell%20id%3D%220%22%2F%3E%3CmxCell%20id%3D%221%22%20parent%3D%220%22%2F%3E%3CmxCell%20id%3D%222%22%20value%3D%22User%20Management%20Service%22%20style%3D%22rounded%3D0%3BwhiteSpace%3Dwrap%3Bhtml%3D1%3B%22%20vertex%3D%221%22%20parent%3D%221%22%3E%3CmxGeometry%20x%3D%22-1030%22%20y%3D%2260%22%20width%3D%22120%22%20height%3D%2260%22%20as%3D%22geometry%22%2F%3E%3C%2FmxCell%3E%3C%2Froot%3E%3C%2FmxGraphModel%3EOrder&lt;/span&gt;&amp;nbsp;Analytics Service" style="rounded=0;whiteSpace=wrap;html=1;" parent="1" vertex="1"><mxGeometry x="-910" y="300" width="120" height="60" as="geometry"/></mxCell><mxCell id="26" value="&lt;span style=&quot;color: rgba(0 , 0 , 0 , 0) ; font-family: monospace ; font-size: 0px&quot;&gt;CmxGraphModel%3E%3Croot%3E%3CmxCell%20id%3D%220%22%2F%3E%3CmxCell%20id%3D%221%22%20parent%3D%220%22%2F%3E%3CmxCell%20id%3D%222%22%20value%3D%22User%20Management%20Service%22%20style%3D%22rounded%3D0%3BwhiteSpace%3Dwrap%3Bhtml%3D1%3B%22%20vertex%3D%221%22%20parent%3D%221%22%3E%3CmxGeometry%20x%3D%22-1030%22%20y%3D%2260%22%20width%3D%22120%22%20height%3D%2260%22%20as%3D%22geometry%22%2F%3E%3C%2FmxCell%3E%3C%2Froot%3E%3C%2FmxGraphModel%3EOrder&lt;/span&gt;&amp;nbsp;CRUD Service" style="rounded=0;whiteSpace=wrap;html=1;" parent="1" vertex="1"><mxGeometry x="-910" y="380" width="120" height="60" as="geometry"/></mxCell><mxCell id="28" style="edgeStyle=none;html=1;startArrow=classic;startFill=1;strokeWidth=1;endArrow=none;endFill=0;exitX=0.5;exitY=0;exitDx=0;exitDy=0;entryX=0.576;entryY=0.998;entryDx=0;entryDy=0;entryPerimeter=0;" parent="1" source="31" edge="1"><mxGeometry relative="1" as="geometry"><mxPoint x="-651" y="590.02" as="sourcePoint"/><mxPoint x="-620.4079999999999" y="509.05999999999995" as="targetPoint"/></mxGeometry></mxCell><mxCell id="29" value="Pull Environment &lt;br&gt;Configuration" style="edgeLabel;html=1;align=center;verticalAlign=middle;resizable=0;points=[];" parent="28" vertex="1" connectable="0"><mxGeometry x="0.0238" y="-1" relative="1" as="geometry"><mxPoint as="offset"/></mxGeometry></mxCell><mxCell id="30" style="edgeStyle=none;html=1;exitX=0;exitY=0.5;exitDx=0;exitDy=0;fontSize=11;startArrow=none;startFill=0;endArrow=classic;endFill=1;strokeWidth=1;" parent="1" source="31" target="41" edge="1"><mxGeometry relative="1" as="geometry"/></mxCell><mxCell id="31" value="config server" style="rounded=0;whiteSpace=wrap;html=1;" parent="1" vertex="1"><mxGeometry x="-679" y="606.02" width="120" height="60" as="geometry"/></mxCell><mxCell id="32" style="edgeStyle=none;html=1;exitX=0.5;exitY=0;exitDx=0;exitDy=0;entryX=0.829;entryY=1.004;entryDx=0;entryDy=0;entryPerimeter=0;startArrow=classic;startFill=1;strokeWidth=1;endArrow=none;endFill=0;exitPerimeter=0;" parent="1" source="44" edge="1"><mxGeometry relative="1" as="geometry"><mxPoint x="-412" y="611.02" as="sourcePoint"/><mxPoint x="-413.7069999999999" y="511.94000000000005" as="targetPoint"/></mxGeometry></mxCell><mxCell id="33" value="Distributed Tracing" style="edgeLabel;html=1;align=center;verticalAlign=middle;resizable=0;points=[];" parent="32" vertex="1" connectable="0"><mxGeometry x="0.0184" relative="1" as="geometry"><mxPoint y="11" as="offset"/></mxGeometry></mxCell><mxCell id="34" value="Sleuth" style="edgeLabel;html=1;align=center;verticalAlign=middle;resizable=0;points=[];fontSize=11;" parent="32" vertex="1" connectable="0"><mxGeometry x="-0.3677" y="2" relative="1" as="geometry"><mxPoint y="-24" as="offset"/></mxGeometry></mxCell><mxCell id="35" value="" style="shape=image;verticalLabelPosition=bottom;labelBackgroundColor=#ffffff;verticalAlign=top;aspect=fixed;imageAspect=0;image=data:image/png,iVBORw0KGgoAAAANSUhEUgAAAOEAAADhCAMAAAAJbSJIAAAAflBMVEX///8AAAClpaXc3Nzk5ORZWVnExMR/f38dHR1TU1NcXFywsLDLy8tra2urq6tVVVXV1dXy8vLs7Oz5+fmPj4+GhoY2NjYfHx9FRUXg4ODr6+tKSkq3t7fQ0NCgoKCZmZkMDAw+Pj4mJiZzc3MtLS1jY2OUlJQVFRWCgoIyMjLRarMBAAAFaklEQVR4nO2cf1MaMRCG04ooimht/UmrYmu13/8LdpYQD0657OY2yW5mn/8ywM29fWbfEMA6ZxiGYRiGYRiGYRiGYRhGRg4evmrj4YCU8NsXfXyjSXysfb9kHmkBnat9w2SoAd3f2ndMhKzQfa99y0S+kxMqk0hXqK1OExTqqtOHlICq6jQtoKJJTJlCQE2dPiVNoSaJiVPo9NRpskItEtMVapnEEQGd+1H77hGMUahiEl9HTKEOieMUKpCYvhcGpNfpWIXy63R0QOmTOF6h8El8ZQgoW+JXloSCJY7dCwNyJfIolFynTAGdu6qdZA9cCsVOIk+RemROIp9CoRI5FcqUuGBNKLFOWQNKrFPOKQTETeIxc8AkiatF+I59cQ3rH+/fua/H+rr3MA3eKQQSJJ50rz6H9d378g6W593DJ+Rr8ytMkXjYvXgG6+7HEgewnHUPH5Kvza8wRWLOhBkCOvcmKGEOhQkS8yW8yRKQPon5EuZR6NyllIQ5itRDlJgtYS6F5EnMljBbQOeOSDeyteOvI0zel5PePwBtx8+nUMi701xF6iHviRk4zZqQWqcZyKtQwjkxr0IBk/iUOSCpTm/n0w3zFawXYTldwHLVPXyLv2huhaRJ3Not1vshx/nwOXtAisR+Qo4dP79C5+5rJiyhkLAnZkhYQiGhTvkTPhUJiJ9E/oRlFOLrlD1hmSkEkBLZE5ZSiK7TyH5ITlhOIbZOZ5eTDZdLWE/DcjKF5bJ7eIa63s+CCau8O+X9vjDG7woJy00hgH9jw8afogGpn9hwUHIKAYzEp5vjDTfr9XFY3xyv193Dr/GLlVaIkvjSPXv97Vrvs7atDwV/xi9WWiHqjU1kx99KeBq9Vtki9cTrlDNheYWYSWRMWH4KgahExoQ1FIa6KJKwjsJ4nfIlrKMwPolsCfN9XxgjMolsCWspjErs/54mdcf/VzBSn2GJf66ONlw9w/rsbbN8O1s/Hh49ehs+AddTiKhTDmoVqafEObGmwiLnxNzfF8Y4y56wrkLaJJ6cBQi/TLiuHJA0if3dAkVthaSb7e/4GGruhQG8xJSE04rJAvg6TUhY8mPu/aDrNCFh/SkE0JNIT1i/SD3YSaQnlDCFAFYiOaEUhWiJ5IRSFKIlUnf8uoeKXXB1ujwMLFHPl6Mw0zlxVTvVDjmOGJIUbr6Y50VOkXr4D/uyFGaYRElF6nlhTihNIfskyipSD2+dylPILFGiQl6JEhWy1qmET2c+g/73yvuQqZBxEmVOIcC1J0pVSPmQcBC5CrnqdF47xgAskyjtULELR53KnUKAYRJva2eIML5OZStkkChd4XiJkovUM1Ki5L0wQP+fWLaRPoXAKInL2nePYsyeKH8KgRES5RepJ71OdSgcIVFDkXrOG1eYLFFHkXrS6lSPwkSJmhSm1emv2jdNIkGilr0wgPvL3m00TSFwQQ2oawoB6hFD1xQCRIn6FFL3xIvat5sASaK2IvVQ6lRbkXoIEmfxq4kEf8TQV6QetEStCvF7osYi9SAlatwLA7jfkWqdQgAl8Tx+HcFg9kTNClES9RapJ16neovUE5WoXaFzsf+aVPcUAr+GA+ouUs9wnWqfQmBQYgsKh48YB/GXK2BAov4i9eyvU/1F6tkr8TD+WiXsO2K0UKSePRLbUbhvT2yjSD2fSmxjLwysmp5CYP4x4En8Var4WKdtKfxEYmsKP0q8i79EGT2JLe2Fgd06bW0KgR2J7U0hsH3EaOntTMe8dYXbddpekXrmrSvs6rTFIvVsJL7En6mW24aL1DNvXaGXOIk/TTHzlovUc930FALTFg8Vu9zXvgHDMAzDMAzDMAzDMAzDMNL4D8T3Yukd99zJAAAAAElFTkSuQmCC;" parent="1" vertex="1"><mxGeometry x="-660" y="675" width="45" height="45" as="geometry"/></mxCell><mxCell id="36" value="" style="shape=image;verticalLabelPosition=bottom;labelBackgroundColor=#ffffff;verticalAlign=top;aspect=fixed;imageAspect=0;image=https://upload.wikimedia.org/wikipedia/commons/thumb/9/91/Octicons-mark-github.svg/2048px-Octicons-mark-github.svg.png;" parent="1" vertex="1"><mxGeometry x="-608" y="675.02" width="35" height="35" as="geometry"/></mxCell><mxCell id="37" style="edgeStyle=none;html=1;entryX=0.111;entryY=0.998;entryDx=0;entryDy=0;entryPerimeter=0;startArrow=classic;startFill=1;endArrow=none;endFill=0;strokeWidth=1;" parent="1" source="39" edge="1"><mxGeometry relative="1" as="geometry"><mxPoint x="-1000.3130000000001" y="509.05999999999995" as="targetPoint"/></mxGeometry></mxCell><mxCell id="38" value="Pull Images" style="edgeLabel;html=1;align=center;verticalAlign=middle;resizable=0;points=[];" parent="37" vertex="1" connectable="0"><mxGeometry x="0.2059" relative="1" as="geometry"><mxPoint x="-1" y="9" as="offset"/></mxGeometry></mxCell><mxCell id="39" value="Private Docker Registry" style="rounded=0;whiteSpace=wrap;html=1;" parent="1" vertex="1"><mxGeometry x="-1060" y="606.02" width="120" height="60" as="geometry"/></mxCell><mxCell id="40" value="" style="aspect=fixed;html=1;points=[];align=center;image;fontSize=12;image=img/lib/mscae/Docker.svg;strokeColor=#000000;strokeWidth=0;fillColor=none;" parent="1" vertex="1"><mxGeometry x="-1027.43" y="675.02" width="54.85" height="44.98" as="geometry"/></mxCell><mxCell id="41" value="Eureka Server" style="rounded=0;whiteSpace=wrap;html=1;" parent="1" vertex="1"><mxGeometry x="-882.34" y="606.02" width="120" height="60" as="geometry"/></mxCell><mxCell id="42" style="edgeStyle=none;html=1;startArrow=classic;startFill=1;endArrow=none;endFill=0;strokeWidth=1;entryX=0.332;entryY=1.002;entryDx=0;entryDy=0;entryPerimeter=0;" parent="1" edge="1"><mxGeometry relative="1" as="geometry"><mxPoint x="-820" y="605.02" as="sourcePoint"/><mxPoint x="-819.7559999999999" y="510.98" as="targetPoint"/></mxGeometry></mxCell><mxCell id="43" value="Microservices Register &lt;br&gt;As A Client" style="edgeLabel;html=1;align=center;verticalAlign=middle;resizable=0;points=[];" parent="42" vertex="1" connectable="0"><mxGeometry x="0.2059" relative="1" as="geometry"><mxPoint x="-1" y="9" as="offset"/></mxGeometry></mxCell><mxCell id="44" value="" style="shape=cylinder3;whiteSpace=wrap;html=1;boundedLbl=1;backgroundOutline=1;size=15;" parent="1" vertex="1"><mxGeometry x="-455" y="600.02" width="82.93" height="81" as="geometry"/></mxCell><mxCell id="45" value="" style="shape=image;verticalLabelPosition=bottom;labelBackgroundColor=#ffffff;verticalAlign=top;aspect=fixed;imageAspect=0;image=data:image/png,iVBORw0KGgoAAAANSUhEUgAAAMgAAADICAYAAACtWK6eAAAkv0lEQVR4nOydCXhTVdrHj03S5KZZ2mxNSko32kIr0FLAAiMtKIzbJ6hUHFxwgdECagEriyiLbMouZVFAKY6MCJ8fzowyoyNQR21dSkFpxYJATWnapEmTNMvNcsv3RFKnYu7N0pPcpD2/5+nz0JyT97yk+d9zzz3veV/m1atXAQKB8E4M3Q4gEJEMEggCQQESCAJBARIIAkEBEggCQQESCAJBARIIAkEBEggCQcXVq1fD+lNUVET3fzliKZTz+IfuyJxPtx+RzPLly8P6fUUzSIQgZDPAnskZb5RkS1ZOyxQPotsfxDWQQCKEGdmS23LF3AcAAPz37sr6ixRj3kC3TwgkkIhAijGZa8YNXNPjpZuWjB4wk0aXEB6QQCKAo3cPfi6ewxzR87WyEUkvK3mxbPq8QgAkEPqZkpEwZEwSf7mXJuWxe4dso8ElRA+QQGhm9diBLwMAON7acsXcJ0uHJY4Lv1eIbpBAaGT7hLQ7ciXce6j6rBk3cB1asNMHEghN5Igwwdw8eaWvv0E8h3lzxcT02eHzDNETJBCaqJiYtgQAIPGnb0mWeEORUpASeq8Q14MEQgPTMsVpxcnCsgDeIqiYkOZtIY8IMUggYUbIZrAqJqa9Q7YwJyNXwn0ILdjDDxJImFkzNnmmjMsaE8RbWTtuSX8nR4ShvZEwggQSRnJEmHBOnuLFXphIWT0uGQUzhhEkkDBy7N4hmwEAA3tjY+og8ZJCOU8KzysEFUggYeKZfHlxMp/9GARTgqNTBlcK2Qz0twsD6EMOA0peLFg6WrkeAABlw0/GZd3+bL7iXhi2ENQggYSBTUWpT8u4rJtg2izLV6xCC/bQgwQSYqZlilJKssQbYduN5zCH7JmUsQK2XcRvQQIJMUtHK1cDAGJDYXtMEn/hzBxpfihsI66BBBJCyvIVN+fJ4h4K4RCsV25OWRtC+/0eJJAQMVzKFW4uTq0M9TgyLuu27RPS7g/1OP0VJJAQsXTUgDIAQFo4xpqbJ99TpBSIwzFWfwMJJARMyxSnlmRLwrnjLVheqHwpjOP1G5BAICPFmGBTUYr71koYznGLk4WlZfmKIeEcsz+ABAKZ0uHyB5P57PE0DM1aPHrAwRQBG+2NQAQJBCJKXixrxZjkNXSNL+Oy8soLFOj0IUSQQCBy7N4hmwAAtJ78m5OnWIoW7PBAAoFE6bDEm3LF3Kfp9gMAoDhw26AddDvRV0ACgYB7YV4+Mmkd3X50k8xnT3+pUDmZbj/6AkggEKiYmP54qpAzgW4/ejJnuHy9kheSCJd+BRJILylSCpJLssSb6fbjemRcVv6motTn6fYj2kEC6SUVE9JeCveeh7+UZInXTMsUoVIKvQAJpBeUDksszJVwH6HbDwqYr6Jgxl6BBBIkUozJ3nFL+kGYoeyqTvsRAMA5WPbcpAo5JRvHp9wK02Z/AgkkSF6/NR12MKL6kX9eKF1RrVoM0eYvLChIemu4lJsA225/AAkkCArlPMnUQeKlMG3uPK1eV9Vsal9V0/yBqtP+d5i2AQDKpaMGPAfZZr8ACSRAhGzGDUenDK4EAAhg2dRYnWc21Kr3dP/+yD8v/Nn9Miz7bkqyJU+j2oeBgwQSIM/mK+6VcVl3QDTpWv/1lRlNJjve/UJVs6n18I/tr0IcA3hqH76NSikEBhJIAOSIMHZZvmIVTJsnVcZdW+vUDde//vznP+/SWJ31MMdy3x0uGT0gkp+6RRxIIAGwZ1LGingOMweiSdPKmmavgmsy2a3umQUAQEAcD9U+DBAkED+ZmSPNH5PEXwjT5o7TrbPdC3Oy9q116u9OqoxvwBwTAJB87N4hWyHb7LMggfiJJ3sIC5Y9jdX5z6dPXHrPV7+VNc3LAQBmWOOCa7UPnyodljgWps2+ChKIH2yfkDZdxmXdBtGkc9F/mvx6TFzVbNIebtQ9CXHsX0C1D/0DCcQHRUqBZG6efA9Mm9UtnZsqG7R1/vaf/mHjQY3V+TFMH+I5zPEVE9NnwbTZF0EC8cHyQqX7FocPy54BdzXM/uSngFOGemYcFyw/wLVgxo2o9iE1SCAUlOUrcouThU/BtLm1Tv1Sg95mD/R9lQ3a2uqWTthh9QJPNDKCBCQQElIEbM7i0QMOAgCYsGxqrM5j2+rU/xfs+2d/8tNyA+76AZY/4Frtw4fRgp0cJBASygsUT8q4rGEQTZqmfnDuEaOd6ArWQIPehm+tU/emhJs3UO1DCpBAvFCkFEjn5CmgRtUevaBbV9NqJt3z8Jdtder3NVbnR3C8+pVUVPvQO0ggXjhw26BdAAA5RJOXl32h2gLDkNFOXJ36wbmZ7n/CsNeNp/ahBKbNvgASyHW8VKi8I5nPvg+iSefcTy8+GMzCnAz3THT0gg72ScHu2odob6QHSCA9UPJib5gzXL4eps36duvbu75r+xKmTTdP/vviNgDARZg2ZVzWHaj24W9BAunBgdsGvSDjsoZCNGmad+ISZfRvkVJAuseSI8JiUwRsjrc2rc1ln/vpxRkAAAcMR7tBtQ9/CxKIh2mZosHFyUKoNf8ON+qeq2o2NZG1l+UrxhUrBaSPWHPEXG55gYI0PH3Xd21f1bdboRbpiecwc/ZMylgO02Y0gwTi4dWbU9YBABiw7F024p/NO35xL1m7e2bYXJz6BgDgKpWdGYOlz+eIMK+ziBvPDGXorb89GZPEf25mjjQPps1oBQkEALBxfMpdqULOVJg2N3zbskRrc5F++csLFA+7Jwlf5z3iOcyMPZMySB85VzWbmjfXtpT11t/rQLUPPfR7gQyXciULCpKgnrmo11l3US3M3ff47pnBX3tjkviLipSCDLL2V765UnnZiH8ajK9kyLis27dPSCuBaTMa6fcC2VKUuggAoIBoUnX7+z9QXtH3TMpYFM9hBpJAgVMxIY1UUFqbyz1jQU8XhGof9nOBTMsUDylOFpbCtLn1VMuyZrOD9MlSkVKQPiaJ/+uX+bTW4teR2lwJ92G3v2Ttu75r+7ZeZ4UdzChcXqiEHdoSVfRbgUgxZsx7d2W9AwCIg2VT1WmvXvf1lbep+lRMSCsHAGDdvxvsBOUivQfYpqKUN6QYeezk7e//4J4NfwrAZZ8UJwvnlOUrBsO0GU30W4EsGT1gFgAgH6JJ08KqpoepFubTMsWDcyXcmcEOkMxn/6F0uJz0YUKz2eFaUa16IVj7JPTr2of9UiCFch63bETSSpg2D//Yvv3IeR3p1dtT/fb1nrOHh4Cie+cMly+jat91pvWQqtMOe8GeX16g6JenD/udQIRsBtgzOQN2MKJq7TdXNlF1KB0uv5uk+q2/t1i/IOOyCg7dmfU4Wbt7wb6wqukxAIA+ELu+mJOnWJojwvrdgr3fCWRGtmRirhhuyYLNtS2PndFaO6j6+LryB0JJlnhLjgiLJ2s/cl6nOvxjO6VggyDp2L1DKiDbjHj6lUDcC/M14wZC3QA7rbEceu6zJspbmkN3Zs2UcVmjSJoDmkE8CComplHm6Hr+859fAwCcD8I2Kcl89gP9rfZhvxJIxcT0Z+M5zJsgmnSt/bqZclGcI8KEJVnibRRdgsqcWJwsfLZQziMtadBkspsXnLz8cKBrHF/0t9qH/UYgUzISMkuyxKth2jzcqFty5Lye8rHq6nHJC0JUoo2/Z3LGDveaioytdeqvTmss+2EO6ql9WA7TZiTTbwSyeuzAVQAALix7Gqvz1MKqyxup+hTKefFTB4lhx0n9Sq6Y+6cZ2ZIxVH3mV11+EQBggzluSZZ47bRMEWnoS1+iXwjkpULlrbkSLtS4op1nWhc3m6mPYuyZnLHdjzoivcp1VT4yiXLxX9VsajncqHumN2N4gbl0tLJfBDP2eYHkiLC4FWOS34YZyq7qtB9cVdP8CVWf0mGJN+WKuQ/BGpOMVCHnDl81CKd/2LhXY3V+BnPcPFnc/RvHp9wC02Yk0ucFUjExbRHkPY8rt7//w9O+OpWPTApbDNOCgqRdKQI25e3j2q+bF8NesPeH2od9WiDTMsXK4mQh1Np8O0+r1zbobZSbcBvHp0xMFXLu9NMkjC/toPICBenmoZvX6lqrq1s6d0AYqyfJS0cNgFoSItLoswIRshnMiolp73gJ7QgajdVZu6FWvY+qT4qAjS0oSNodgFkoV/U5eYrn3LeTVH1mf/LTEgPuugBjvG48tQ/77IK9zwpkzdjkGTIuy1toR7A413995cEmk50yfU95geIxAEAmxHH9JWXPpAzKBXuD3mY5eE4L9dw9AECwqSilz9Y+7JMCyRFhvBmDpVATD5xUGXdsrVP/6GNc7pw8RaB7BMHspHtlTBJ//pSMhGyqPi98qXpXY3UehzUmuLbDPmbJ6AEPw7QZKfRJgRy7d8ir8RxmOkSThnnHqdP3gGsnBV8AAKQGaBtmDUL26rEDF1F1MNoJYt7xSw8BACwQxwVlI5JWK3mxfW6Lvc8J5Jl8+bhkPhtmRaarO063zmrQ2yiDEadkJGTBrmEYDLkS7oxpmWLKpNtHzuvURy/oYJeZ7pO1D/ucQJaOVq6H+f/SWJ0fPX3i0v/66ue5ckfCoSL2e3dl7fW1Jlj2hWoDAKAZ5sC5Ym5p6bBEyp39aKNPCeTQnVl/lnFZf4Bo0rnoP00+T+hNyxTfmCvhPhjkGFCrRnkYVTpcPo2qQ4PeZltRrXoI9vjlI5PW96UFe58RSJFSMMBH1GzAVLd0vlLZoD1D1UeKMYH7ih0hs8evzBkuX+Yr6nZVTXNVfbv1IMxxU4Wc8RUT05+AaZNO+oxAthSlvgwAIM1AGCgG3HV26t/OveyrX+lw+X0AAJgh9FCQcVnDNhWl+szYMu/EpRUAgE6YY/el2od9QiBl+Yqb8mRxQSdD8MbWOvWLWpuLMhrRfYWGcFIQavhHT0qyxBt8HZOtajZdOtyoo3zyFQTCiglpfSJdUNQLJEXA5m0uTn0b8sL879vq1B/46repKPVJGZfV2xy2IRMIACCuYmKaz32Zeccv7jbgrs9hDuypfRj1C/aoF8irfxj4DOSda8PUD849avSRr8p9ZS7JEsM+9w2d4mThvEI5T0rVR2tzXX3hi59hZ2aM3XFL+jtSjBlRa7NAiWqBTMsUK0uyJVD3Ho5e0K2taTX7zAjiORMOI+kctJ10EuL2TM7YRXXyEFzLzPhFvc4aSAyZP6S9fmt6yA6MhYOoFYgnz9RbAAARRLMXPZWbKCmU88TFyUKfIe9+AnMn3Su5Yu59M7IlPuPSPDmFVTDHjvbah1ErkNLh8pJkPpvyoFCAOOZ+enGGr4W5m5+MuH5FtephjdUJ9b49FBhw1+mdp1tnfnTZ8JWvvs1mh33rqRZo6Yk8CI9OGbw/WmsfRqVAlLxYxooxyetg2qxvt1bu+q7N55cIeO7ZV9U0H5W//u3NK6tVdwEALsH0BRItW2pbHsneX1cw78SlA76ikLtZ9/WVt1Wd9i9gOiLjsu58Nl9xD0yb4SIqBXLgtkHrAQAwzyAY5p245HPPwxsra5o/TNz9TdaKatWjGqvz+yBMQN3JNuCuCztPtz6Ttu/U4IWfNb2ttbkCekrmFv/CqqZHYJeZLstXvByNC/aoE0jpsMQRsE8Juq+2OWJMFuybtTaXa1VNc+XId74bdrixfSYAoB2ue37RUd3SOT97f13uvBOXtjeZ7EFv/h05r7tY3279K0zn4jnMnKN3D34Jps1wEFUCcS/My0cmQS3T7CFnx8T0r1qfHPnxS4XKe6QYM6jPpdnsANM/PH/gxsrTA/fXa54BAFyG7+rvaDncqFs24XB91rhDZ7f6s4YiI0eEcTcXpT7R+uTIL3Ml3KfguvnLeZXyaKt9GFUCWTRqwIOpQs6kEJlnyLisSSvGJL/f9tSo88sLlSXBZhBs0Ntsj3/80/aBe2ozDje2L/Rx9iLYp1i26pbONTdWns6e/mHjmqpmU9CzVqGChx26M/OFszPz1GUjFHtlXFaoNvhYr9ycsiZEtkNC1AikSClIWlCQ9FqYhktfPib5vZ9nFzS8OTnj6RwR5iu3lVeazY6u6R+e33y4UUf1pQhqH+SkyvjGuENnlzXobeZg3i9kM8C0THH+8Wk5FV8+MFRdkiVZ7UcOr14j47Lu2D4hjTLSOJKIGoFUTEhbBnnPwx+GPJore+3szLwrh+7MXKrkxQa7yORB9gv0ZoOxbITiph8fzf/3e3dlnSpOFs4NUWpUUubmyffmiLBw/y2DIioEUjossSBXwqVMaxNieCVZkjU/zy5oOT4t59VpmeJAj/PyKdpCvZP+CykCNr9iQtrj+tJRX2wuSq2RcVl0Jn0TVkyMjmDGiBeIFGOydtySfjBCzluIipOF5e/dlXXh+0eGVxYqeAP8fB/VrUtId9JzRBj/i+k3Lr70xIiLc/Lk++I5zLGhHM9f3DNXNNQ+jHiBvHJzSikAIItuP67jhlwx95EvHxh66eLj+QdLhyeOp9opLlIKqGaQkDAzR5p3fFrO9rMz8y6NSeKvAwBEWrhHzBNDZVCPKISCiBfIxm9bDla3dG4DAOB0++IFVqqQ86cdE9Orfnw0//OyEYpx3jrJuKyQL367WV6ovKlp1oiP3/rjoLriZOE8AEDElU1TddqrVlarCoceOLOEbl98QV5TOEJo0Nvaxx06W1akFGyaM1z+55Is8ROQC/9DQcZljd1clPr5Szcp/3PwXPvuDbUt7zeZ7N2ipppBer2TniPCsFlDE6fPGCyZ5XlEG4kXPke9zvrBxm9btlc2aP9DtzP+EvEC6aaq2aSqaja9uLIaW79nUsYzY5L4zwMASOv00UU8h3nznDy5+6dpS23LivXfXPlLqB6fFip4nPkjFM+WZEkWR+Jn4eGqqtP+wcKqy4uPnNdTJt6LRKJGIN006G2WcYfOritSCt4oyRTPnDFYUhrPYQ6i2y8vpMwvSHrrsVzZC5Czy/9CcbLw7i8fGPpoBAvDUq+zvrvx25YdlQ3aOrqdCZZInIr9oqrZpJt34tLm7P11Q7bUtswCAFyh2ydveMRLtQ8S7FOs9AgVh0vVaX/r/n/8OHjogTOzolkcIJoF0o3W5nIt/KxpX9q+U9k7T7c+YcBdp+j2KUDCsg8SBjoON+q23vO3c7kpe089fuS8HmpSOrqIeoF002SyW+aduPRm9v66gi21LVMAAD/Q7VM/wVbd0rnpxsrTg6Z/2Dj/g586Gul2CCZ9RiDdaG0usPCzpr+l7Ts1fO7xi/ddNuJQM5mHgGidQdSHG3Uve6KIn/NVVCha6XMC6abJZHfuOtP2fvqbdbcsqLo8RmN1fkm3TySE/Ew6ZIzVLZ0v3Fh5OnP6h40vVTWb+sStFBlR9xQrGLaeUte8Va/5w4zBkuLygqR5qULOFJhFPfsJFw836nbvPNP6Vm9C66ONfiEQcK0uxtVdZ9pOuH/KRigyF48asFHGZd1Nt19RQOuW2pZV67+5sldrcznpdibc9BuB9GTrKfX5t+o1UyYNjM+fMzxxbnGy8EGYeX0DJBTZ3XuNAXd9f/Bc+84NtS3v9Ob4brTTZ9cgvjDaCXDkvK5u4pGGWWPf/T6lXmfdG+I0oNHCxS21LQ9k76/Lm3fi0u7+LA7QnwXSkxq1WTP0wJnZ9/+jcdBJlXGj+wJKt0/hxoC7anaebn0obd+p3IWfNR0KNBtKX6Vf3mKRceS87tKR87ryQgVv+Z5JGUtzxdznQn0ORWt10voUS2N1nnnnB+3z67+58rHWFpF3e7SCBOKFGrXZOvTAmWU5ImzbcyOT/vxorqwUAODv4aiAaNDbaNkHuWzEP9lQ27L94Ln2Y0Y7gZRBArrFoqBBb9M+/vFPawbuqU053Nhe1hduvTRW5+cLqi6PSn+zbvKuM21/R+KgBgnED5rNDmL6h+e33Vh5Wrm/XjMPYhhLuO7zuy4b8f+de/zihOz9deO3nlJ/G6Zxox4kkABo0Nssj3/8046Be2pzdp5unQEhE3rI1x8aq/MfC6ouD05/s27arjNtJ33VPUH8FiSQIGg2O8C8E5f+mrj7m/QV1aoHNVZnNd0+XYfjpMq4f+7xiyOz99f9z9ZT6vN0OxStIIH0Ak9O3oPy178du7JaNQkA8B3dPtXrrAfGvvt96sQjDY/tOtNWa7RHW6hXZIEEAomVNc3/Ttz9zfAV1ao7NVbnR37ePgWdR/c6zCdVxu33/6Mxe+iBMzNr1GY1JLv9HiQQiGhtLrCqpvkj+evf3jn3+MVRqk77pyEe0lWvs24b++73yolHGp45cl7Xp85iRAJIICFi15m2upS9p2597F8XxtbrfinWDzNtUftJlXHt/f9oTB164ExZjdoMtZYH4r+gjcIQU9mgrXb/TMsUpW8qSl2dzGff3yPUPtAFgu1wY/v6hVVNrzabHZGYJ6zPgWaQMHHkvP5iyt5TMx7714Vh9TrrDk8FJ3/3QVT76zVLbqw8rZz+4flVSBzhA80gYaayQdtQ2aCdlyPCVu6ZlPGsj+6uw43tzyysatrRbHag4EE6uHr1alh/ioqK6P4vI6KY5cuXh/X7im6xEAgKkEAQCAqQQBAICpBAEAgKkEAQCAqQQBAICpBAEAgKkEAQCAqQQBAICpBAEAgKkEAQCAqQQBAICpBAEAgKkEAQCAqQQBAICpBAEAgKkEAQCAqQQBAICpBAEAgKaEnawOFwuAkJCUtCOUZnZ+dHZrP5NzlzFQrFYgBAnLf+drv9M71e/0n377GxsUlisbg0kDEdDgfR1dXl8GQsaXU4HE1Op/MHh8Nh8ddGbGwsTywWLyJr7+zsfN9sNtf5ay8+Pv5WDMNIEwF0dXXVtrW1He35mkKhKAcACLz1t9vtn+v1+n91/y4SiWaw2ewhZOa1Wu2rLpfL7/+/x+fxGIZN8tbG4/GOAwBOBGKvN9AiEAaDEYdh2LJQjoHjeDsA4DcCwTBsAQBASvKW9QCAXwUSExOTFKiPGIZ5e9kJAPjSaDS+ZTAY3iEI6nocMTExPKpxcRy/AADwSyBxcXFykUh0yP09Julia2trG3b9ixiGPUtRMGgjAOBXgbDZ7BIMw6aS+SAUCtt0Ot1Of/ztJjY29g9knwGLxXKFUyDoFiv0sAAARUKhcH9KSsoVqVS6JCYmJqRl3cC1L5lQIpEcoxCHXa/X32exWC6E0g8ej1fOYrG8Xjmo3hYidwIGCSS8yPh8/trU1NRaDoejCOVAYrF4HYPByCNrt9lsrxgMhmOh9AFcu1tIlUqlpLeMJMSGyJ2A6csCieREa7mJiYnHOBwO2dW9V4jF4gcxDPszWTtBEJ9otdq1oRjbGxwOZxGHw0kL13gw6asCwW0221G6naCCwWAMl8lkf42JgfsnEAgEw923cz3y/17Pxebm5qkul8sOdWBqOAkJCeVhHA8atCzSCYKw2Wy2vcG+37MolJC1m83m2TiO97Y8GiU2m201juNne7zE8Kw3RBwOJzU2NnY0g8EYTXURYjKZkwUCwR0Gg+EjGD6xWKy4hISEtyj+rvb29vaZBEFYYYwXCBiGzYyLi9tosVguhnvs3kCLQHAcN6vV6tnBvFcgEBRiGDaLrJ0giL9rNJq/9MpBP8Bx/GRHRwdl/Q+hUJgTHx9/0D1bkPXh8XgzYQjEPRMpFIoDDAYjn6yP2WyeYzKZPu/tWEHCFYvFuy0Wy2Saxg+KqLrFiomJYSYkJGyh6GLVarXPh9ElSoxGY4Narb6FIIgGsj6xsbETY2JibujtWGKx+Gkmk3kvWbvdbt+n0Wje7O04vYHJZE4SCARe9zcilagSiFwuX8JgMArJ2s1m83NWq/VceL2ixuFw6Do6OuZSdJFgGJbZmzHi4uJy+Xz+qxRdGjUazTO9GQMWCQkJS+n2IRCiRiACgaCAw+G8SNbudDr/3d7evju8XvmH2WyuAgDoyNpjYmKyg7XN4XCSEhMT3bdoHJIu6paWltucTmfY1x3eYDAYxfHx8XfT7Ye/RI1AEhISNnsWwd7o0uv187u6uiKyBrjHL9KHBhiGiYO1nZiYWAEAGEjWrtfr5+E4filY+6FAJBLtCsdmKQyiQiAymWw+g8EYT9Zus9mWWiyWs+H1KmCgi1ehUCxiMBj3kLXbbLa1JpPpfdjjBsBXJK8nicXip8LsS1BEvEDi4uKG8Hi8DWTtBEFUazSaV8LrVVDIyBpwHO8I1JgnCHE9WTtBEB+p1eoXurro2y81GAwrAQBab218Pr+cwWBEfIWziBZITEyMezreQrHp5ero6JhPEJFdLJ/P52dRBP+5v8w/BmKPw+HIhELh6xRdrrS1tdF+hbbb7bbOzs5NJM0DxGLxyjC7FDARLRCJRDKbxWL9kawdx/FXTCYT2TQeMSQkJCynaO7AcdzvJ28xMTFMmUz2AYPBSKfodgNBEO2BeRkaDAZDBdkDCh6PtzguLi4l/F75T8QKhMvlZvN4vM1k7QRB1La2tkb8FUgqlT7JZDJnkLU7nc5PA5kBhULhIiaTSfqo20OSSCRaEIifocLpdFqMRiPZI+YYgUDg7VwQ5ZGAcBKxApFKpa9QhT13dHQs7OrqcobXK/+Ji4tLGzhw4EE+n0/56NlsNv81QNN+7ZnExcWVs9nskARDBopOpztIEMS33towDHuCzWanXveyIzye+SYiF0kymWwGg8GYQtbucDheM5lMVeH16rfweLx5HA7n+oNCLM/GXzYAYAjF2ukXCIKoNhqNfwuRi0K5XL5PpVLdQ+NC/dfvl9FoXCsSibw9UWPK5fI9KpVqUg8/I6YOfMQJhMPhKHk8HlUg449qtZr22wcWizWVxSLblvELXXt7+31dXV0hu51gMBhTeTze7SaTKeTnPkj49QMymUz/JxAIvmYymaOv78RgMG69zs+IuTOIuFsssVi8wT3zkrXr9fr5RKQ/tvKNUaPR3G+xWNSQ7NnIGhISElbFxMRQzmQh5Ndx3bODTqebRfblFwqFERkOH1ECEYlEd7PZ7AfI2l0u1/5wnIILMQ1tbW15ZrP5OAxjDofjoNlsJg3QZDAYIyUSCVUsWCj5zffLYrF873A4vK65WCzWBIFAMDFsnvlJxAjEfWsVHx+/j6ydIIgLarU6IgLugoEgiEaz2bzg559/vslisVyGZPacRqN5tr29fRdBEKfIOvF4vDUcDuf6hTAt6PX6V90fh7c2iUSyk8lkksWU0ULECEQikayiOgRlNBoXO53OzvB61WuuOByOfTqd7haVSjVYo9FscblcZki2DW1tbZMdDkd7V1cXYTQaV1H05UkkkpBmkSHhd2H8Vqu1HsfxCpL+2UKh8KHQu+U/EbFIF4vFf4yNjX2YrN3hcBymOabod9hstmU4jp++7uUugiBsDodDDwBoxnFcH6rxDQbDUxaL5dcASJPJ9HehUPgJg8Hwet7C/fny+fzdnZ2dXh+3hhOtVrs8OTl5OgBAfn0bj8crdzgcB+jx7PfQLhAWi5UgFAoPUvii1mq1j0VapC6O4zW+ThSGcOwNer3+UM/Xurq6utrb2x9PTEw8TxL6HiuVSt+2WCxDQ/nkzB+cTqfRbDa/xuPxfpc4gsFgZGEY9jg9nv0e2m+xJBLJaorcTe4r5SK73R5QZr6+jNPpPNba2rrYW5vFYmm22Ww7KN4+WCwWk2Y7CSd6vX43AKCVpJkqjCas0CoQgUAwBsMw0qA6l8v1scFgeDu8XkU2ZrP5UBfFzl9HR8d6t1bI2vl8/osMBiPQRG7QcblcHe6LH91++II2gcTGxookEslfKXxo1Wg0j9AZrh2N4Djebjabn6XoIlcoFNvC6BIpBoPhgNPp/IZuP6igTSBisfgFAABpJKfRaFyB43hbeL3qG2g0mn0EQXxN1h4bGztbIBD4CngMOe6Ln9FoJD3TEgnQIhA+nz8Kw7A5ZO0EQVR1dHTQmoEj2nFfYKjahULhathJ64LBbDYfJQiimm4/yAj7U6zY2FhMKpUepkgyABgMxpDU1NTG3oxjs9neVavVIS2xEMkYDIZjAoHgIyaTeYe3dhaLdUt8fPwDer3+3fB79188T9+eSExMPEv3mtgbYReIpy6Ir0MypMdTA4B007G/oNPpnkpMTPzePWF4a4+Pj3/NarUex3FcE37v/ovFYvnBZrMdxDAsojYJAR2KZTAYN4d7zP6KxWJRmc1mqtoc0kjJmWsymcKWTDsQIm5KQ8DFZDJtIUucAK4dWHoqLi6uV4nrYOCeRRwOxy66/bgeJJA+Do7jWoPBMJ+iC08sFu+PhAW7Wq12z2YhC88JBvo/FUTI8ZR++w9ZO5PJHCsQCP4UgqEDyuZIEISls7OTKvdy2Lnh6tXwhjjV1NQU6fV6GItwSgiCuIjjeG3P1+Li4u4GAHjN6EcQxDkcx7/v/j0mJiYBw7Bbyew7HI4qp9MJfXEbExPDwTDsfyjG/drpdDYFapfFYqXHxsYWUHRptVgsv4goLi7uLrJDawRB/Ijj+Hfdv3M4nLEMBsNrSiMcx08SBEF6e+eNmJgYPoZht5G1Z2Zm1mdmZpImA4dN2AWCQEQT6BYLgaAACQSBoAAJBIGgAAkEgaAACQSBoAAJBIGgAAkEgaDg/wMAAP//keBfbcwKCyYAAAAASUVORK5CYII=;" parent="1" vertex="1"><mxGeometry x="-449" y="632" width="41" height="41" as="geometry"/></mxCell><mxCell id="46" value="" style="aspect=fixed;html=1;points=[];align=center;image;fontSize=12;image=img/lib/mscae/Docker.svg;strokeColor=#000000;strokeWidth=0;fillColor=none;" parent="1" vertex="1"><mxGeometry x="-410.07000000000005" y="640.02" width="28.07" height="23.02" as="geometry"/></mxCell><mxCell id="48" value="Google Cloud Distributed DBMS" style="sketch=0;aspect=fixed;html=1;points=[];align=center;image;fontSize=12;image=img/lib/mscae/Azure_Database_for_PostgreSQL_servers.svg;labelBackgroundColor=none;" parent="1" vertex="1"><mxGeometry x="-400" y="181.98" width="107.93" height="142.02" as="geometry"/></mxCell><mxCell id="49" style="edgeStyle=none;html=1;startArrow=none;startFill=0;endArrow=classic;endFill=1;strokeWidth=3;fillColor=#fff2cc;strokeColor=#d6b656;" parent="1" edge="1"><mxGeometry relative="1" as="geometry"><mxPoint x="-407.99999999999994" y="253.98000000000002" as="targetPoint"/><mxPoint x="-538" y="253.51004622496157" as="sourcePoint"/></mxGeometry></mxCell><mxCell id="50" style="edgeStyle=none;html=1;startArrow=none;startFill=0;endArrow=classic;endFill=1;strokeWidth=3;fillColor=#fff2cc;strokeColor=#d6b656;" parent="1" edge="1"><mxGeometry relative="1" as="geometry"><mxPoint x="-538" y="285.48" as="targetPoint"/><mxPoint x="-417.99999999999994" y="285.48" as="sourcePoint"/></mxGeometry></mxCell><mxCell id="Q4eKTRQMYlAMyAX2pRNl-52" value="&lt;span style=&quot;color: rgba(0 , 0 , 0 , 0) ; font-family: monospace ; font-size: 0px&quot;&gt;CmxGraphModel%3E%3Croot%3E%3CmxCell%20id%3D%220%22%2F%3E%3CmxCell%20id%3D%221%22%20parent%3D%220%22%2F%3E%3CmxCell%20id%3D%222%22%20value%3D%22User%20Management%20Service%22%20style%3D%22rounded%3D0%3BwhiteSpace%3Dwrap%3Bhtml%3D1%3B%22%20vertex%3D%221%22%20parent%3D%221%22%3E%3CmxGeometry%20x%3D%22-1030%22%20y%3D%2260%22%20width%3D%22120%22%20height%3D%2260%22%20as%3D%22geometry%22%2F%3E%3C%2FmxCell%3E%3C%2Froot%3E%3C%2FmxGraphModel%3EOrder&lt;/span&gt;&amp;nbsp;Communication Service" style="rounded=0;whiteSpace=wrap;html=1;" parent="1" vertex="1"><mxGeometry x="-780" y="60" width="120" height="60" as="geometry"/></mxCell></root></mxGraphModel></diagram><diagram id="GXd9NhsTc1XuZ5LpkFL5" name="CMS Process"><mxGraphModel dx="2736" dy="1741" grid="1" gridSize="10" guides="1" tooltips="1" connect="1" arrows="1" fold="1" page="1" pageScale="1" pageWidth="850" pageHeight="1100" math="0" shadow="0"><root><mxCell id="9e002FOmCYePqguODGrh-0"/><mxCell id="9e002FOmCYePqguODGrh-1" parent="9e002FOmCYePqguODGrh-0"/><mxCell id="0iZLRcFAxshsmkrBIhQD-0" value="" style="rounded=0;whiteSpace=wrap;html=1;fontStyle=1;fillColor=none;strokeWidth=2;dashed=1;" vertex="1" parent="9e002FOmCYePqguODGrh-1"><mxGeometry x="-1049" y="40" width="419" height="450" as="geometry"/></mxCell><mxCell id="0iZLRcFAxshsmkrBIhQD-1" value="" style="rounded=0;whiteSpace=wrap;html=1;fontStyle=1;fillColor=none;strokeWidth=2;dashed=1;" vertex="1" parent="9e002FOmCYePqguODGrh-1"><mxGeometry x="-1210" y="-30" width="1030" height="790" as="geometry"/></mxCell><mxCell id="0iZLRcFAxshsmkrBIhQD-2" style="edgeStyle=none;html=1;entryX=0;entryY=0.5;entryDx=0;entryDy=0;startArrow=none;startFill=0;endArrow=classic;endFill=1;strokeWidth=3;fillColor=#fff2cc;strokeColor=#d6b656;" edge="1" parent="9e002FOmCYePqguODGrh-1" source="0iZLRcFAxshsmkrBIhQD-3"><mxGeometry relative="1" as="geometry"><mxPoint x="-1448" y="291" as="targetPoint"/></mxGeometry></mxCell><mxCell id="0iZLRcFAxshsmkrBIhQD-3" value="" style="outlineConnect=0;dashed=0;verticalLabelPosition=bottom;verticalAlign=top;align=center;html=1;shape=mxgraph.aws3.internet_3;fillColor=#D2D3D3;gradientColor=none;strokeColor=#B266FF;strokeWidth=2;" vertex="1" parent="9e002FOmCYePqguODGrh-1"><mxGeometry x="-1650" y="270" width="79.5" height="54" as="geometry"/></mxCell><mxCell id="0iZLRcFAxshsmkrBIhQD-4" value="" style="outlineConnect=0;dashed=0;verticalLabelPosition=bottom;verticalAlign=top;align=center;html=1;fontSize=12;fontStyle=0;aspect=fixed;pointerEvents=1;shape=mxgraph.aws4.network_load_balancer;fillColor=#6a00ff;strokeColor=#3700CC;fontColor=#ffffff;" vertex="1" parent="9e002FOmCYePqguODGrh-1"><mxGeometry x="-1440" y="250" width="74" height="74" as="geometry"/></mxCell><mxCell id="0iZLRcFAxshsmkrBIhQD-5" value="Traffic" style="text;html=1;resizable=0;autosize=1;align=center;verticalAlign=middle;points=[];fillColor=none;strokeColor=none;rounded=0;" vertex="1" parent="9e002FOmCYePqguODGrh-1"><mxGeometry x="-1645" y="230" width="50" height="20" as="geometry"/></mxCell><mxCell id="0iZLRcFAxshsmkrBIhQD-6" value="LoadBalancer" style="text;html=1;resizable=0;autosize=1;align=center;verticalAlign=middle;points=[];fillColor=none;strokeColor=none;rounded=0;" vertex="1" parent="9e002FOmCYePqguODGrh-1"><mxGeometry x="-1440" y="220" width="90" height="20" as="geometry"/></mxCell><mxCell id="0iZLRcFAxshsmkrBIhQD-7" style="edgeStyle=none;html=1;startArrow=none;startFill=0;endArrow=classic;endFill=1;strokeWidth=3;fillColor=#fff2cc;strokeColor=#d6b656;" edge="1" parent="9e002FOmCYePqguODGrh-1"><mxGeometry relative="1" as="geometry"><mxPoint x="-1220" y="265" as="targetPoint"/><mxPoint x="-1350" y="264.53004622496155" as="sourcePoint"/></mxGeometry></mxCell><mxCell id="0iZLRcFAxshsmkrBIhQD-8" style="edgeStyle=none;html=1;startArrow=none;startFill=0;endArrow=classic;endFill=1;strokeWidth=3;fillColor=#fff2cc;strokeColor=#d6b656;" edge="1" parent="9e002FOmCYePqguODGrh-1"><mxGeometry relative="1" as="geometry"><mxPoint x="-1350" y="296.5" as="targetPoint"/><mxPoint x="-1230" y="296.5" as="sourcePoint"/></mxGeometry></mxCell><mxCell id="0iZLRcFAxshsmkrBIhQD-9" value="" style="rounded=0;whiteSpace=wrap;html=1;fontStyle=1;fillColor=none;strokeWidth=2;dashed=1;strokeColor=#33FF33;movable=1;resizable=1;rotatable=1;deletable=1;editable=1;connectable=1;" vertex="1" parent="9e002FOmCYePqguODGrh-1"><mxGeometry x="-1060" y="30" width="817" height="480" as="geometry"/></mxCell><mxCell id="0iZLRcFAxshsmkrBIhQD-10" value="Private&lt;br&gt;Network" style="text;html=1;align=center;verticalAlign=middle;resizable=0;points=[];autosize=1;strokeColor=none;" vertex="1" parent="9e002FOmCYePqguODGrh-1"><mxGeometry x="-1160" y="60" width="54" height="32" as="geometry"/></mxCell><mxCell id="0iZLRcFAxshsmkrBIhQD-11" value="IAM -AUTH SERVICE" style="editableCssRules=.*;shape=image;verticalLabelPosition=bottom;labelBackgroundColor=none;verticalAlign=top;aspect=fixed;imageAspect=0;image=data:image/svg+xml,PHN2ZyB4bWxucz0iaHR0cDovL3d3dy53My5vcmcvMjAwMC9zdmciIHhtbG5zOnY9Imh0dHBzOi8vdmVjdGEuaW8vbmFubyIgd2lkdGg9IjE2LjQyMDAwMDA3NjI5Mzk0NSIgaGVpZ2h0PSIyMC4wNDk5OTkyMzcwNjA1NDciIGZpbGwtcnVsZT0iZXZlbm9kZCIgdmlld0JveD0iMCAwIDE2LjQyMDAwMDA3NjI5Mzk0NSAyMC4wNDk5OTkyMzcwNjA1NDciPiYjeGE7CTxzdHlsZSB0eXBlPSJ0ZXh0L2NzcyI+JiN4YTsJLnN0MHtmaWxsOiM0Mjg1ZjQ7fSYjeGE7CS5zdDF7ZmlsbDojNjY5ZGY2O30mI3hhOwk8L3N0eWxlPiYjeGE7CTxwYXRoIGNsYXNzPSJzdDEiIGQ9Ik04LjIxIDBMMCAzLjQydjUuNjNjMCA1LjA2IDMuNSA5LjggOC4yMSAxMSA0LjcxLTEuMTUgOC4yMS01Ljg5IDguMjEtMTAuOTVWMy40MnptMCAzLjc5YTIuNjMgMi42MyAwIDAgMSAxLjAwNSA1LjA2QTIuNjMgMi42MyAwIDAgMSA2LjM1IDQuNTZhMi42MyAyLjYzIDAgMCAxIDEuODYtLjc3em00LjExIDExLjE1YTguNjQgOC42NCAwIDAgMS00LjExIDIuOTMgOC42NCA4LjY0IDAgMCAxLTQuMTEtMi45M3YtMi4yNWMwLTEuNjcgMi43NC0yLjUyIDQuMTEtMi41MnM0LjExLjg1IDQuMTEgMi41MnoiLz4mI3hhOwk8cGF0aCBjbGFzcz0ic3QwIiBkPSJNOC4yMSAwdjMuNzlhMi42MyAyLjYzIDAgMSAxIDAgNS4yNnYxLjEyYzEuMzcgMCA0LjExLjg1IDQuMTEgMi41MnYyLjI1YTguNjQgOC42NCAwIDAgMS00LjExIDIuOTNWMjBjNC43MS0xLjE1IDguMjEtNS44OSA4LjIxLTEwLjk1VjMuNDJ6Ii8+JiN4YTs8L3N2Zz4=;" vertex="1" parent="9e002FOmCYePqguODGrh-1"><mxGeometry x="-1180" y="240" width="66" height="82.5" as="geometry"/></mxCell><mxCell id="0iZLRcFAxshsmkrBIhQD-12" style="edgeStyle=none;html=1;startArrow=none;startFill=0;endArrow=classic;endFill=1;strokeWidth=3;fillColor=#fff2cc;strokeColor=#d6b656;" edge="1" parent="9e002FOmCYePqguODGrh-1"><mxGeometry relative="1" as="geometry"><mxPoint x="-1070" y="265" as="targetPoint"/><mxPoint x="-1106" y="264.76004622496157" as="sourcePoint"/></mxGeometry></mxCell><mxCell id="0iZLRcFAxshsmkrBIhQD-13" style="edgeStyle=none;html=1;startArrow=none;startFill=0;endArrow=classic;endFill=1;strokeWidth=3;fillColor=#fff2cc;strokeColor=#d6b656;" edge="1" parent="9e002FOmCYePqguODGrh-1"><mxGeometry relative="1" as="geometry"><mxPoint x="-1106" y="296.73" as="targetPoint"/><mxPoint x="-1080" y="297" as="sourcePoint"/></mxGeometry></mxCell><mxCell id="0iZLRcFAxshsmkrBIhQD-14" value="Ad Management" style="rounded=0;whiteSpace=wrap;html=1;" vertex="1" parent="9e002FOmCYePqguODGrh-1"><mxGeometry x="-1040" y="60" width="120" height="60" as="geometry"/></mxCell><mxCell id="0iZLRcFAxshsmkrBIhQD-15" value="Product/Service Management" style="rounded=0;whiteSpace=wrap;html=1;" vertex="1" parent="9e002FOmCYePqguODGrh-1"><mxGeometry x="-1040" y="140" width="120" height="60" as="geometry"/></mxCell><mxCell id="0iZLRcFAxshsmkrBIhQD-16" value="Contact Module" style="rounded=0;whiteSpace=wrap;html=1;" vertex="1" parent="9e002FOmCYePqguODGrh-1"><mxGeometry x="-1040" y="220" width="120" height="60" as="geometry"/></mxCell><mxCell id="0iZLRcFAxshsmkrBIhQD-24" style="edgeStyle=none;html=1;startArrow=classic;startFill=1;strokeWidth=1;endArrow=none;endFill=0;exitX=0.5;exitY=0;exitDx=0;exitDy=0;entryX=0.576;entryY=0.998;entryDx=0;entryDy=0;entryPerimeter=0;" edge="1" parent="9e002FOmCYePqguODGrh-1" source="0iZLRcFAxshsmkrBIhQD-27"><mxGeometry relative="1" as="geometry"><mxPoint x="-651" y="590.02" as="sourcePoint"/><mxPoint x="-620.4079999999999" y="509.05999999999995" as="targetPoint"/></mxGeometry></mxCell><mxCell id="0iZLRcFAxshsmkrBIhQD-25" value="Pull Environment &lt;br&gt;Configuration" style="edgeLabel;html=1;align=center;verticalAlign=middle;resizable=0;points=[];" vertex="1" connectable="0" parent="0iZLRcFAxshsmkrBIhQD-24"><mxGeometry x="0.0238" y="-1" relative="1" as="geometry"><mxPoint as="offset"/></mxGeometry></mxCell><mxCell id="0iZLRcFAxshsmkrBIhQD-27" value="config server + jenkins ci/cd" style="rounded=0;whiteSpace=wrap;html=1;" vertex="1" parent="9e002FOmCYePqguODGrh-1"><mxGeometry x="-679" y="606.02" width="120" height="60" as="geometry"/></mxCell><mxCell id="0iZLRcFAxshsmkrBIhQD-32" value="" style="shape=image;verticalLabelPosition=bottom;labelBackgroundColor=#ffffff;verticalAlign=top;aspect=fixed;imageAspect=0;image=https://upload.wikimedia.org/wikipedia/commons/thumb/9/91/Octicons-mark-github.svg/2048px-Octicons-mark-github.svg.png;" vertex="1" parent="9e002FOmCYePqguODGrh-1"><mxGeometry x="-636.5" y="680" width="35" height="35" as="geometry"/></mxCell><mxCell id="0iZLRcFAxshsmkrBIhQD-43" value="Google Cloud Distributed DBMS" style="sketch=0;aspect=fixed;html=1;points=[];align=center;image;fontSize=12;image=img/lib/mscae/Azure_Database_for_PostgreSQL_servers.svg;labelBackgroundColor=none;" vertex="1" parent="9e002FOmCYePqguODGrh-1"><mxGeometry x="-421" y="293.99" width="107.93" height="142.02" as="geometry"/></mxCell><mxCell id="0iZLRcFAxshsmkrBIhQD-44" style="edgeStyle=none;html=1;startArrow=none;startFill=0;endArrow=classic;endFill=1;strokeWidth=3;fillColor=#fff2cc;strokeColor=#d6b656;" edge="1" parent="9e002FOmCYePqguODGrh-1"><mxGeometry relative="1" as="geometry"><mxPoint x="-429" y="365.99" as="targetPoint"/><mxPoint x="-559" y="365.52004622496156" as="sourcePoint"/></mxGeometry></mxCell><mxCell id="0iZLRcFAxshsmkrBIhQD-45" style="edgeStyle=none;html=1;startArrow=none;startFill=0;endArrow=classic;endFill=1;strokeWidth=3;fillColor=#fff2cc;strokeColor=#d6b656;" edge="1" parent="9e002FOmCYePqguODGrh-1"><mxGeometry relative="1" as="geometry"><mxPoint x="-559" y="397.49" as="targetPoint"/><mxPoint x="-439" y="397.49" as="sourcePoint"/></mxGeometry></mxCell><mxCell id="0iZLRcFAxshsmkrBIhQD-47" value="Career/Job Management" style="rounded=0;whiteSpace=wrap;html=1;" vertex="1" parent="9e002FOmCYePqguODGrh-1"><mxGeometry x="-1040" y="300" width="120" height="60" as="geometry"/></mxCell><mxCell id="0iZLRcFAxshsmkrBIhQD-48" value="Posts/Blogs/News Management" style="rounded=0;whiteSpace=wrap;html=1;" vertex="1" parent="9e002FOmCYePqguODGrh-1"><mxGeometry x="-1040" y="380" width="120" height="60" as="geometry"/></mxCell><mxCell id="0iZLRcFAxshsmkrBIhQD-49" value="Product Order Management" style="rounded=0;whiteSpace=wrap;html=1;" vertex="1" parent="9e002FOmCYePqguODGrh-1"><mxGeometry x="-910" y="60" width="120" height="60" as="geometry"/></mxCell><mxCell id="0iZLRcFAxshsmkrBIhQD-50" value="Coverage Management" style="rounded=0;whiteSpace=wrap;html=1;" vertex="1" parent="9e002FOmCYePqguODGrh-1"><mxGeometry x="-910" y="140" width="120" height="60" as="geometry"/></mxCell><mxCell id="0iZLRcFAxshsmkrBIhQD-51" value="Media/File Management" style="rounded=0;whiteSpace=wrap;html=1;" vertex="1" parent="9e002FOmCYePqguODGrh-1"><mxGeometry x="-910" y="220" width="120" height="60" as="geometry"/></mxCell><mxCell id="0iZLRcFAxshsmkrBIhQD-52" value="Team Management" style="rounded=0;whiteSpace=wrap;html=1;" vertex="1" parent="9e002FOmCYePqguODGrh-1"><mxGeometry x="-910" y="300" width="120" height="60" as="geometry"/></mxCell><mxCell id="0iZLRcFAxshsmkrBIhQD-53" value="Subscriber/Lead Management" style="rounded=0;whiteSpace=wrap;html=1;" vertex="1" parent="9e002FOmCYePqguODGrh-1"><mxGeometry x="-910" y="380" width="120" height="60" as="geometry"/></mxCell><mxCell id="0iZLRcFAxshsmkrBIhQD-54" value="Tender Management" style="rounded=0;whiteSpace=wrap;html=1;" vertex="1" parent="9e002FOmCYePqguODGrh-1"><mxGeometry x="-770" y="60" width="120" height="60" as="geometry"/></mxCell><mxCell id="0iZLRcFAxshsmkrBIhQD-55" value="Partner/Investor Management" style="rounded=0;whiteSpace=wrap;html=1;" vertex="1" parent="9e002FOmCYePqguODGrh-1"><mxGeometry x="-770" y="140" width="120" height="60" as="geometry"/></mxCell><mxCell id="0iZLRcFAxshsmkrBIhQD-56" value="Users/Role Management" style="rounded=0;whiteSpace=wrap;html=1;" vertex="1" parent="9e002FOmCYePqguODGrh-1"><mxGeometry x="-770" y="222.99" width="120" height="60" as="geometry"/></mxCell><mxCell id="0iZLRcFAxshsmkrBIhQD-57" value="Location Office Management" style="rounded=0;whiteSpace=wrap;html=1;" vertex="1" parent="9e002FOmCYePqguODGrh-1"><mxGeometry x="-770" y="300" width="120" height="60" as="geometry"/></mxCell><mxCell id="0iZLRcFAxshsmkrBIhQD-58" value="FAQ's Management" style="rounded=0;whiteSpace=wrap;html=1;" vertex="1" parent="9e002FOmCYePqguODGrh-1"><mxGeometry x="-770" y="380" width="120" height="60" as="geometry"/></mxCell><mxCell id="0iZLRcFAxshsmkrBIhQD-59" value="Bucket Storage" style="shape=cylinder3;whiteSpace=wrap;html=1;boundedLbl=1;backgroundOutline=1;size=15;" vertex="1" parent="9e002FOmCYePqguODGrh-1"><mxGeometry x="-410" y="92" width="60" height="80" as="geometry"/></mxCell><mxCell id="0iZLRcFAxshsmkrBIhQD-65" style="edgeStyle=none;html=1;startArrow=none;startFill=0;endArrow=classic;endFill=1;strokeWidth=3;fillColor=#d5e8d4;strokeColor=#82b366;" edge="1" parent="9e002FOmCYePqguODGrh-1"><mxGeometry relative="1" as="geometry"><mxPoint x="-440" y="120.46999999999977" as="targetPoint"/><mxPoint x="-570" y="120.00004622496132" as="sourcePoint"/></mxGeometry></mxCell><mxCell id="0iZLRcFAxshsmkrBIhQD-66" style="edgeStyle=none;html=1;startArrow=none;startFill=0;endArrow=classic;endFill=1;strokeWidth=3;fillColor=#d5e8d4;strokeColor=#82b366;" edge="1" parent="9e002FOmCYePqguODGrh-1"><mxGeometry relative="1" as="geometry"><mxPoint x="-570" y="151.96999999999977" as="targetPoint"/><mxPoint x="-450" y="151.96999999999977" as="sourcePoint"/></mxGeometry></mxCell><mxCell id="0iZLRcFAxshsmkrBIhQD-68" value="CDN" style="ellipse;shape=cloud;whiteSpace=wrap;html=1;" vertex="1" parent="9e002FOmCYePqguODGrh-1"><mxGeometry x="-1463" y="410" width="120" height="80" as="geometry"/></mxCell><mxCell id="0iZLRcFAxshsmkrBIhQD-69" value="" style="endArrow=classic;html=1;rounded=0;" edge="1" parent="9e002FOmCYePqguODGrh-1"><mxGeometry width="50" height="50" relative="1" as="geometry"><mxPoint x="-1408.5" y="410" as="sourcePoint"/><mxPoint x="-1408.5" y="340" as="targetPoint"/></mxGeometry></mxCell><mxCell id="0iZLRcFAxshsmkrBIhQD-70" value="" style="endArrow=classic;html=1;rounded=0;" edge="1" parent="9e002FOmCYePqguODGrh-1"><mxGeometry width="50" height="50" relative="1" as="geometry"><mxPoint x="-1398.5" y="340" as="sourcePoint"/><mxPoint x="-1398.5" y="410" as="targetPoint"/></mxGeometry></mxCell></root></mxGraphModel></diagram><diagram id="Qh1v29Gjm3688NTwr49c" name="DevSecOps Process"><mxGraphModel dx="1036" dy="641" grid="1" gridSize="10" guides="1" tooltips="1" connect="1" arrows="1" fold="1" page="1" pageScale="1" pageWidth="850" pageHeight="1100" math="0" shadow="0"><root><mxCell id="61MP9fX-i-O8j6yRf0D8-0"/><mxCell id="61MP9fX-i-O8j6yRf0D8-1" parent="61MP9fX-i-O8j6yRf0D8-0"/></root></mxGraphModel></diagram><diagram id="Kr9WBPVnfSdC-FOE4A17" name="E-commerce Process"><mxGraphModel dx="1036" dy="641" grid="1" gridSize="10" guides="1" tooltips="1" connect="1" arrows="1" fold="1" page="1" pageScale="1" pageWidth="850" pageHeight="1100" math="0" shadow="0"><root><mxCell id="0"/><mxCell id="1" parent="0"/></root></mxGraphModel></diagram></mxfile>